<svg xmlns="http://www.w3.org/2000/svg" viewBox="0 0 192 192">
  <defs><linearGradient id="g" x1="32" y1="24" x2="160" y2="168"><stop stop-color="#7C5CFF"/><stop offset="1" stop-color="#28E0B8"/></linearGradient></defs>
  <rect width="192" height="192" rx="44" fill="#050507"/>
  <circle cx="96" cy="96" r="70" fill="url(#g)"/>
  <path d="M63 102c-12 0-22-9-22-20s10-20 22-20c16 0 27 14 33 22 7-8 18-22 33-22 13 0 22 9 22 20s-9 20-22 20c-15 0-26-14-33-22-6 8-17 22-33 22Zm0-13c8 0 15-7 24-18-9-11-16-18-24-18-6 0-10 4-10 10s4 10 10 10Zm66 0c6 0 10-4 10-10s-4-10-10-10c-8 0-15 7-24 18 9 11 16 18 24 18Z" fill="white"/>
</svg>
