<svg xmlns="http://www.w3.org/2000/svg" viewBox="0 0 512 512">
  <defs>
    <linearGradient id="g" x1="96" y1="80" x2="416" y2="432" gradientUnits="userSpaceOnUse">
      <stop stop-color="#7C5CFF"/>
      <stop offset="1" stop-color="#28E0B8"/>
    </linearGradient>
  </defs>
  <rect width="512" height="512" rx="116" fill="#050507"/>
  <circle cx="256" cy="256" r="184" fill="url(#g)" opacity="0.96"/>
  <path d="M169 272c-30 0-54-23-54-52s24-52 54-52c40 0 69 36 87 58 18-22 47-58 87-58 30 0 54 23 54 52s-24 52-54 52c-40 0-69-36-87-58-18 22-47 58-87 58Zm0-35c21 0 40-17 63-46-23-29-42-46-63-46-15 0-27 11-27 25s12 27 27 27Zm174 0c15 0 27-12 27-27s-12-25-27-25c-21 0-40 17-63 46 23 29 42 46 63 46Z" fill="white"/>
  <text x="256" y="384" text-anchor="middle" font-family="Arial, sans-serif" font-size="58" font-weight="800" fill="white" letter-spacing="8">LOOP</text>
</svg>
